<?xml version="1.0" encoding="UTF-8"?>
<svg id="Layer_1" xmlns="http://www.w3.org/2000/svg" version="1.1" viewBox="0 0 1024 1024">
  <!-- Generator: Adobe Illustrator 29.8.4, SVG Export Plug-In . SVG Version: 2.1.1 Build 6)  -->
  <defs>
    <style>
      .st0 {
        fill: #231f20;
      }
    </style>
  </defs>
  <path class="st0" d="M953.89,563.83c-3.43-3.43-8.08-5.35-12.92-5.35H83.03c-10.1,0-18.28,8.18-18.28,18.28,0,60.37,11.83,118.94,35.15,174.09,22.53,53.26,54.77,101.09,95.84,142.16,41.07,41.07,88.9,73.31,142.16,95.84,55.15,23.33,113.73,35.16,174.1,35.16s118.95-11.83,174.1-35.15c53.26-22.53,101.09-54.77,142.16-95.84,41.07-41.07,73.31-88.9,95.84-142.16,23.33-55.15,35.15-113.73,35.15-174.1,0-4.85-1.93-9.5-5.35-12.92ZM512,987.44c-220.33,0-400.69-174.4-410.29-392.41h238.47c9.37,132.42,119.75,236.93,254.55,236.93s245.18-104.52,254.55-236.93h73c-9.59,218.01-189.96,392.41-410.29,392.41Z"/>
  <polygon class="st0" points="627.33 333.18 521.45 0 426.36 333.18 339.54 182.87 339.54 483.5 521.45 483.5 724.02 483.5 724.02 182.87 627.33 333.18"/>
</svg>