<?xml version="1.0" encoding="UTF-8"?>
<svg id="Layer_1" xmlns="http://www.w3.org/2000/svg" version="1.1" viewBox="0 0 1024 1024">
  <!-- Generator: Adobe Illustrator 29.8.4, SVG Export Plug-In . SVG Version: 2.1.1 Build 6)  -->
  <defs>
    <style>
      .st0 {
        fill: #e9e4de;
      }
    </style>
  </defs>
  <path class="st0" d="M511.99,1024c-113.1,0-220.99-42.38-303.79-119.31-82.37-76.54-132.53-180.18-141.25-291.85-.47-5.94,1.5-11.61,5.53-15.96,3.99-4.3,9.4-6.68,15.27-6.68h244.89c13,146.65,97.17,261.15,267.9,261.15s262.17-112.41,260.05-261.15h75.67c5.87,0,11.28,2.37,15.27,6.68,4.03,4.35,5.99,10.02,5.53,15.96-8.72,111.67-58.88,215.33-141.25,291.85-82.8,76.93-190.69,119.31-303.79,119.31h-.03Z"/>
  <polygon class="st0" points="632.09 329.26 527.46 0 433.49 329.26 347.69 180.71 347.69 477.79 527.46 477.79 727.64 477.79 727.64 180.71 632.09 329.26"/>
</svg>